<svg xmlns="http://www.w3.org/2000/svg" width="868.74" height="868.74" viewBox="0 0 868.74 868.74">
	<path d="M678.62 0H190.11C85.12 0 0 85.12 0 190.12v488.51c0 104.99 85.12 190.11 190.11 190.11h488.51c105 0 190.12-85.12 190.12-190.11V190.12C868.74 85.12 783.62 0 678.62 0M370.29 800.74H190.11c-32.61 0-63.28-12.7-86.34-35.77C80.7 741.91 68 711.24 68 678.63V190.12c0-32.62 12.7-63.29 35.77-86.35C126.83 80.7 157.5 68 190.11 68H477.4a434 434 0 0 0-75.47 78.1c-55.65 73.93-86.63 166.01-87.24 259.35-.05 39.6 22.4 73.65 58.6 88.86 36.3 15.25 76.44 7.43 104.76-20.39l.15-.15c4.46-4.51 10.73-6.93 17.23-6.64h.1c12.22.46 22.29 11.25 22 23.56v.41c.23 37.74-4.85 74.96-15.11 110.79a513 513 0 0 1-30.43 2.21c-74.57 3.1-138.45-10.43-189.93-40.24-46.71-26.83-88.9-67.97-122.02-118.99-5.02-8.22-14.01-25.84-14.1-26.02l-34.35-67.39s.86 33.73 2.09 44.89c1.55 14.04 8.26 47.23 10.29 55.54l.06.22c3.38 12.92 8.07 25.9 14.35 39.7 23.48 51.44 61.72 95.5 110.59 127.43 47.35 30.94 102.75 49.36 160.2 53.28 21.94 1.7 43.77 1.79 65.19.28-25.22 49.11-60.66 92.67-104.07 127.94m430.45-122.11c0 32.61-12.7 63.28-35.77 86.34-23.06 23.07-53.73 35.77-86.35 35.77h-221.3c55.11-53.5 95.52-120.93 115.96-194.73 9.71-34.53 15.16-70.3 16.2-106.31l.01-.21c.01-.69.04-2.08.08-3.53.04-1.8.08-3.67.09-4.59.5-22.24-7.25-44.84-21.27-62.04-16.77-20.94-42.04-33.77-69.34-35.2-27.33-1.42-53.82 8.7-72.73 27.78-7.18 6.93-16.75 8.7-25.61 4.74-9.05-4.05-14.21-12.56-13.79-22.77l.02-.34v-.34c-.34-41.69 6.16-83 19.32-122.91 25.43-5.86 45.1-8.52 64.77-8.79.4 0 .81-.01 1.21-.01 46.58 0 91.25 9.77 129.24 28.27 37.14 18.21 70.87 45.18 100.23 80.16 5.33 6.36 10.24 12.79 14.59 19.1 1.74 2.68 4.9 8.25 5.99 10.2l31.29 55.89s-.15-29.33-1.04-39.05c-.91-10.01-5.42-34.65-6.49-39.67l-.06-.27c-1.11-4.72-2.48-9.48-4.07-14.12-2.98-8.8-6.76-17.71-11.21-26.45-37.27-73.88-116.65-127.63-207.18-140.29-27.13-4.28-55.41-4.46-83.14-.61C472.75 149.15 517.8 102.37 571.16 68h107.46c32.62 0 63.29 12.7 86.35 35.77 23.07 23.06 35.77 53.73 35.77 86.35z"/>
</svg>
